**ABCDEFGHIJKLMNOPQRSTUVWXYZabcdefghijklmnopqrstuvwxyz**************************
**PARASOLID !"#$%&'()*+,-./:;<=>?@[\]^_`{|}~0123456789**************************
**PART1;
MC=AMD64;
MC_MODEL=Intel64 Family 6 Model 15 Stepping 11, GenuineIntel;
MC_ID=unknown;
OS=Windows_NT;
OS_RELEASE=unknown;
FRU=Parasolid Version 30.0, build 226,  7-26-2017;
APPL=SOLIDWORKS 2018-2017278;
SITE=;
USER=unknown;
FORMAT=text;
GUISE=transmit;
KEY=Nut M5 DIN 985;
FILE=Nut M5 DIN 985.x_t;
DATE=Mon Jun 15 22:55:56 2020;
**PART2;
SCH=SCH_3000226_30000;
USFLD_SIZE=0;
**PART3;
**END_OF_HEADER*****************************************************************
T51 : TRANSMIT FILE created by modeller version 300022623 SCH_3000226_30000_1300
6205 0 12 33 CCCCCCI4 mesh1006 0 I8 polyline1008 0 CCCCCCCDI5 owner1040 0 CCCCCC
I13 boundary_mesh1006 0 I17 boundary_polyline1008 0 CCCA16 index_map_offset0 0 1
 dA9 index_map82 0 A17 node_id_index_map82 0 A20 schema_embedding_map82 0 A5 chi
ld12 0 A14 lowest_node_id0 0 1 dZ1 1025 0 2 0 0 0 0 0 0 1e3 1e-8 0 3 0 1 0 1 1 4
 5 6 7 0 0 8 9 10 0 0 0 0 0 0 70 11 CI9 list_type0 0 1 uI10 notransmit0 0 1 lCCC
DCCDI12 finger_index0 0 1 dI12 finger_block1012 0 CZ2 0 4 T1 0 0 2 20 1 11 11 13
 255 4 134 0 1 0 12 0 0 13 0 50 255 5 127 0 12 14 0 15 +-.005 .00230940107675850
5 -.004 0 .866025403784439 -.5 0 .5 .866025403784439 38 12 CCCCCCCCCCCA17 inters
ection_data204 0 Z6 615 0 16 17 0 0 +14 18 19 20 21 22 29 255 7 608 0 10 23 0 -.
00284273441009184 .002309401076758505 .004 19 8 CCCCCCCA5 owner12 0 Z8 40 0 1 13
 0 24 V0 16 255 9 616 0 ?25 0 16 6 16 16 1 18 255 10 606 0 26 0 27 7 ?1 17 255 2
6 0 28 29 30 10 31 32 0 33 -18 27 549 0 34 10 35 23 ?1 17 34 0 36 37 38 27 39 40
 0 41 +18 35 533 0 42 27 43 44 ?1 29 23 552 0 27 44 7 -570674346354722e-34 .0034
64101615137755 -.002 29 44 535 0 35 45 23 0 -1082492940295924e-34 -.004 29 45 22
0 0 43 46 44 -.0003572655899081585 .00461880215351701 -3446048161334015e-34 18 4
3 218 0 47 35 48 45 ?1 29 46 514 0 48 49 45 -.0003572655899081585 -.002309401076
758505 -.004 18 48 387 0 50 43 51 46 ?1 29 49 515 0 51 52 46 -.00035726558990815
85 .002309401076758505 -.004 18 51 392 0 53 48 54 49 ?1 29 52 517 0 54 55 49 -.0
003572655899081585 .002309401076758505 .004 18 54 390 0 56 51 57 52 ?1 29 55 518
 0 57 58 52 -.0003572655899081585 -.0023094010767585 .004 18 57 389 0 59 54 60 5
5 ?1 29 58 519 0 60 61 55 -.0003572655899081585 -.00461880215351701 433680868994
202e-33 18 60 388 0 62 57 63 58 ?1 29 61 520 0 63 64 58 570674346354722e-34 -.00
3464101615137755 -.002 18 63 376 0 65 60 66 61 ?1 29 64 523 0 66 67 61 -57067434
6354722e-34 .003464101615137755 .002 18 66 386 0 68 63 69 64 ?1 29 67 524 0 69 7
0 64 0 823697468718781e-34 .004 18 69 383 0 71 66 72 67 ?1 29 70 525 0 72 73 67
 570674346354722e-34 -.003464101615137755 .002 18 72 377 0 74 69 75 70 ?1 29 73
 857 0 75 76 70 -.0032 -.003464101615137755 -.002 18 75 738 0 77 72 78 73 ?1 29
 76 858 0 78 79 73 -.0032 296531088738761e-34 -.004 18 78 736 0 80 75 81 76 ?1 2
9 79 859 0 81 82 76 -.0032 .003464101615137755 -.002 18 81 733 0 83 78 84 79 ?1
 29 82 860 0 84 85 79 -.0032 .003464101615137755 .002 18 84 756 0 29 81 86 82 ?1
 29 85 861 0 86 87 82 -.0032 296531088738761e-34 .004 18 86 742 0 88 84 89 85 ?1
 29 87 862 0 89 90 85 -.0032 -.003464101615137755 .002 18 89 740 0 91 86 92 87 ?
1 29 90 869 0 92 93 87 -.00284273441009184 -.002309401076758505 -.004 18 92 745
 0 94 89 95 90 ?1 29 93 870 0 95 96 90 -.00284273441009184 .002309401076758505 -
.004 18 95 746 0 97 92 98 93 ?1 29 96 871 0 98 99 93 -.00284273441009184 .004618
80215351701 867361737988404e-33 18 98 748 0 100 95 101 96 ?1 29 99 873 0 101 102
 96 -.00284273441009184 -.0023094010767585 .004 18 101 744 0 103 98 104 99 ?1 29
 102 874 0 104 0 99 -.00284273441009184 -.00461880215351701 433680868994202e-33
 18 104 743 0 105 101 0 102 ?1 17 105 0 106 91 107 104 108 109 0 110 -15 255 106
 777 0 91 111 0 17 91 0 106 107 105 89 110 112 0 113 -17 107 0 106 105 91 75 113
 114 0 115 -17 108 0 116 117 118 75 105 109 0 0 +16 109 699 0 ?108 119 120 121 1
20 120 1 17 110 0 122 62 123 104 91 112 0 118 +15 122 114 0 124 125 0 17 62 0 12
2 126 110 60 118 127 0 128 +17 123 0 122 110 124 89 103 129 0 0 +16 112 698 0 ?1
10 120 130 131 129 129 1 17 118 0 116 108 132 104 62 127 0 0 -15 116 112 0 118 1
33 0 17 132 0 116 118 134 60 135 136 0 0 +16 127 638 0 ?62 137 138 139 0 0 1 16
 137 651 0 ?50 140 127 141 0 0 1 16 138 625 0 ?59 127 142 143 0 0 1 30 255 139 1
30 0 127 141 143 0 +-.005 -.00461880215351701 113073473172693e-32 1 0 0 30 141 1
29 0 137 144 139 0 +-.005 -.002309401076758505 -.004 1 0 0 30 143 131 0 138 139
 145 0 +-.005 -.002309401076758505 .004 1 0 0 30 145 132 0 142 143 146 0 +-.005
 .002309401076758505 .004 1 0 0 16 142 607 0 ?56 138 147 145 0 0 1 30 146 133 0
 147 145 17 0 +-.005 .00461880215351701 -3446048161334015e-34 1 0 0 16 147 610 0
 ?47 142 148 146 0 0 1 38 17 226 0 149 146 6 0 +14 150 151 152 153 154 16 149 22
4 0 ?155 156 140 17 156 156 1 50 14 126 0 157 158 5 159 +-.005 .0046188021535170
1 -3446048161334015e-34 0 .866025403784439 .5 0 -.5 .866025403784439 52 255 150
 487 0 160 161 162 163 +-.0003572655899081585 764841716305247e-34 0 -1 -16473949
37437565e-32 0 .00461880215351701 .866025403784442 .5 1647394937437565e-32 -1 0
 40 255 3 151 0 1 3 .0004138262127537635 .304720154457433 ??-.000357332259074763
 .002309285606704665 .0040002 -194322707174309e-20 .00354616481112959 .001857862
375110655 -.000357332259074763 .00461891762357084 -200000000000318e-21 41 3 CI8
 term_use0 0 1 cCZ1 152 L?-.000357332259074763 .002309285606704665 .0040002 41 1
 153 L?-.000357332259074763 .00461891762357084 -200000000000318e-21 204 2 17 INT
ERSECTION_DATA17 Intersection data7 uv_type0 0 1 u6 values0 1 1 fT12 154 4 .0046
1903309362468 .00464266774092524 2.09435180220554 666691666043638e-22 .002145274
68477483 .00499805677292826 2.6590024723963 -.000355322362836416 -23094010767589
05e-22 .00464266774092524 3.14163595377745 666691666043638e-22 14 255 160 480 16
4 ?165 166 167 4 150 +166 165 165 166 24 54 255 161 832 0 168 169 150 0 +-.004 0
 0 -1 -1647394937437565e-32 0 .003 .001 1647394937437565e-32 -1 0 51 255 162 210
 0 170 150 171 0 --.00812199341312805 -514315614350057e-34 0 -1 -164739493743756
5e-32 0 .0021 1647394937437565e-32 -1 0 141 255 163 17 172 173 150 141 172 174 1
75 163 150 141 173 176 163 177 150 38 176 504 0 178 179 180 0 +158 150 181 182 1
83 184 141 177 180 173 185 150 38 180 503 0 186 176 187 0 +188 150 189 190 191 1
92 141 185 187 177 175 150 38 187 502 0 136 180 193 0 +194 150 195 196 197 198 1
41 175 193 185 172 150 38 193 501 0 199 187 174 0 -150 200 201 202 203 204 16 19
9 358 0 ?205 206 207 193 206 206 1 38 174 500 0 208 193 209 0 +5 150 210 211 212
 213 50 200 122 0 214 215 194 216 +-.005 -.002309401076758505 -.004 0 0 -1 -1 0
 0 40 4 201 0 1 4 .000684495066505086 .31422792189331 ??-.00191410682124061 -.00
612487198995892 -.004 -.000205783577598677 -.00172582198865978 -.004 -2833198462
79877e-19 .00062848038863466 -.004 -.000920309006541804 .0039106369898669 -.004
 41 1 202 L?-.00191410682124061 -.00612487198995892 -.004 41 1 203 L?-.000920309
006541804 .0039106369898669 -.004 204 16 204 4 5.70465152457191 .001556841231332
45 -.00308589317875939 -.003815470913200415 5.11971476091244 -.00015148201230948
15 -.00479421642240132 .000583579088098728 4.55654299056011 -.000328933605280171
5 -.00497166801537201 .002937881465393165 3.938286899624375 .000563043416633645
 -.004079690993458195 .00622003806662541 14 214 671 217 ?133 12 218 4 200 +0 0 1
33 12 24 50 215 91 0 219 171 200 0 +0 0 0 1 0 0 0 0 -1 50 194 123 0 133 200 188
 220 +-.005 -.00461880215351701 113073473172693e-32 0 -.866025403784439 -.5 0 .5
 -.866025403784439 141 216 193 221 221 200 141 221 222 216 216 200 38 222 841 0
 223 131 121 0 +200 18 224 225 226 227 16 223 705 0 ?228 130 129 222 130 130 1 3
8 131 842 0 129 229 222 0 +188 18 230 231 232 233 38 121 840 0 120 222 179 0 +19
4 18 234 235 236 237 52 18 834 0 238 0 169 239 +-.0032 296531088738761e-34 0 1 1
647394937437565e-32 0 .004 .866025403784442 .5 -1647394937437565e-32 1 0 40 4 22
4 0 1 4 .000684495066505085 .31422792189331 ??-.00128589317875939 -.006124871989
95892 -.004 -.002994216422401325 -.00172582198865978 -.004 -.003171668015372015
 .000628480388634659 -.004 -.0022796909934582 .0039106369898669 -.004 41 1 225 L
?-.00128589317875939 -.00612487198995892 -.004 41 1 226 L?-.0022796909934582 .00
39106369898669 -.004 204 16 227 4 -.00371410682124061 -.00381547091320041 3.7201
2643619747 .00191410682124061 -.002005783577598675 .000583579088098727 4.3050631
9985694 .0002057835775986775 -.001828331984627985 .002937881465393165 4.86823497
020927 283319846279872e-19 -.0027203090065418 .00622003806662541 5.4864910611450
1 .000920309006541803 14 238 824 240 ?0 168 28 4 18 +111 241 0 168 24 51 169 833
 0 242 18 161 0 +-.00812199341312805 -514315614350057e-34 0 -1 -1647394937437565
e-32 0 .004 1647394937437565e-32 -1 0 141 239 6 243 244 18 141 243 121 245 239 1
8 141 244 246 239 247 18 38 246 844 0 32 248 229 0 -18 158 249 250 251 252 141 2
47 229 244 253 18 38 229 843 0 254 246 131 0 +5 18 255 256 257 258 141 253 131 2
47 245 18 141 245 222 253 243 18 16 254 711 0 ?259 260 32 229 260 260 1 40 3 255
 0 1 3 .000413826212753763 .304720154457433 ??-.00284266774092524 .0023092856067
04665 -.0040002 -.00319805677292826 .00354616481112959 -.001857862375110655 -.00
284266774092524 .00461891762357084 199999999999453e-21 41 1 256 L?-.002842667740
92524 .002309285606704665 -.0040002 41 1 257 L?-.00284266774092524 .004618917623
57084 199999999999453e-21 204 12 258 4 -230940107675419e-21 .00215733225907476 5
.23594445579533 .000357332259074763 .002473527468742175 .001801943227071745 5.80
059512598609 194322707174283e-20 .00461903309362468 .00215733225907476 433001876
573501e-19 .0003573322590747625 17 259 0 261 47 262 98 83 254 0 263 +16 260 706
 0 ?262 264 254 229 254 254 1 16 32 731 0 ?31 254 265 246 264 264 1 17 31 0 266
 267 268 86 26 32 0 0 +16 265 727 0 ?269 32 270 248 0 0 1 16 264 707 0 ?267 129
 260 246 32 32 1 17 267 0 266 59 31 101 88 264 0 124 +16 129 708 0 ?123 223 264
 131 112 112 1 15 266 116 0 268 271 0 17 59 0 266 272 267 57 124 138 0 273 +17 8
8 0 274 275 103 86 267 264 0 30 -17 124 0 122 123 276 101 59 138 0 0 -17 276 0 1
22 124 126 57 277 186 0 0 +17 126 0 122 276 62 72 128 278 0 279 +17 277 0 280 71
 273 72 276 186 0 126 -16 186 364 0 ?276 278 281 180 278 278 1 16 278 362 0 ?126
 136 186 180 186 186 1 16 281 365 0 ?272 186 178 176 178 178 1 17 272 0 266 282
 59 69 273 281 0 283 +16 178 373 0 ?282 281 284 176 281 281 1 17 282 0 266 268 2
72 54 285 178 0 0 +16 284 338 0 ?71 178 286 179 119 286 1 17 71 0 280 273 277 69
 279 284 0 285 +16 286 369 0 ?68 284 40 179 284 40 1 31 255 179 507 0 284 121 17
6 0 +0 823697468718781e-34 0 -1 -1647394937437565e-32 0 1647394937437565e-32 -1
 0 .004 16 119 329 0 ?74 287 109 179 287 284 1 17 74 0 288 128 135 72 289 119 0
 277 +16 287 330 0 ?65 290 119 179 290 119 1 17 65 0 291 292 293 63 294 287 0 13
5 +16 290 333 0 ?295 40 287 179 40 287 1 17 295 0 296 297 41 35 298 290 0 294 +1
6 40 339 0 ?34 286 290 179 286 290 1 15 296 452 0 295 299 0 17 297 0 296 41 295
 51 42 206 0 300 -17 41 0 296 295 297 27 300 208 0 301 -17 298 0 302 39 294 27 2
95 290 0 0 -17 294 0 302 298 289 35 65 287 0 0 -15 302 60 0 294 219 0 17 289 0 3
02 294 279 63 74 119 0 0 -17 279 0 302 289 283 72 71 284 0 0 -17 283 0 302 279 3
9 69 68 286 0 0 -17 39 0 302 283 298 66 34 40 0 0 -17 68 0 167 303 285 66 283 28
6 0 38 +15 167 482 0 68 160 0 17 303 0 167 285 68 54 304 156 0 282 -17 285 0 167
 68 303 69 282 178 0 272 -17 38 0 36 34 37 66 155 149 0 304 -15 36 446 0 38 166
 0 17 37 0 36 38 34 43 301 305 0 155 -17 155 0 306 263 304 43 38 149 0 0 +17 304
 0 306 155 56 66 303 156 0 39 +15 306 118 0 263 157 0 17 56 0 306 304 33 54 268
 142 0 303 +16 156 229 0 ?304 16 149 17 149 149 1 16 16 613 0 ?33 9 156 6 9 9 1
 17 33 0 306 56 25 10 29 16 0 268 +17 25 0 306 33 263 84 100 9 0 0 +17 29 0 28 3
0 26 84 33 16 0 307 -17 268 0 266 31 282 10 56 142 0 0 -15 28 826 0 29 238 0 17
 30 0 28 26 29 86 308 309 0 310 -17 307 0 311 100 83 84 312 313 0 308 -15 311 80
1 0 307 241 0 17 100 0 311 83 307 98 25 9 0 259 -17 83 0 311 307 100 81 259 254
 0 314 -17 312 0 315 316 308 81 307 313 0 262 +16 313 710 0 ?312 309 317 318 309
 317 1 17 308 0 315 312 310 84 30 309 0 25 +15 315 759 0 312 242 0 17 310 0 315
 308 113 86 275 319 0 31 +16 309 732 0 ?308 319 313 318 319 313 1 16 319 709 0 ?
310 270 309 318 114 309 1 31 318 855 0 319 0 320 0 +-.0032 296531088738761e-34 0
 -1 -1647394937437565e-32 0 1647394937437565e-32 -1 0 .004 31 320 854 0 270 318
 248 0 +-.004 164739493743756e-34 0 -1 -1647394937437565e-32 0 1647394937437565e
-32 -1 0 .004 16 270 689 0 ?321 265 319 320 0 0 1 31 248 853 0 265 320 246 0 +-.
005 0 0 -1 -1647394937437565e-32 0 1647394937437565e-32 -1 0 .003 17 321 0 322 3
21 321 0 323 270 0 0 +15 322 819 0 321 168 324 17 323 0 325 323 323 0 321 270 0
 0 -15 325 888 0 323 242 315 14 242 757 326 ?111 299 325 4 169 +0 0 111 299 24 8
1 255 1 326 1006 327 242 328 0 240 329 330 14 111 775 329 ?331 242 106 4 18 +331
 238 331 242 24 14 299 450 332 ?242 333 296 4 150 +333 166 242 333 24 13 24 41 0
 0 0 0 0 0 8 12 14 12 681 334 ?214 0 261 4 5 +0 0 214 0 24 81 1 334 1009 327 12
 335 0 332 336 337 15 261 120 0 338 12 0 17 338 0 261 262 300 95 53 140 0 0 -17
 262 0 261 259 338 81 97 260 0 0 +17 300 0 261 338 301 51 41 208 0 0 +17 53 0 21
8 42 228 51 338 140 0 297 +16 140 664 0 ?53 149 137 144 0 0 1 30 144 128 0 140 3
39 141 0 +-.005 .002309401076758505 -.004 1 0 0 31 339 212 0 148 209 144 0 +-.00
5 0 0 -1 -1647394937437565e-32 0 1647394937437565e-32 -1 0 .0021 16 148 195 0 ?3
40 147 341 339 0 0 1 31 209 213 0 341 174 339 0 +0 823697468718781e-34 0 -1 -164
7394937437565e-32 0 1647394937437565e-32 -1 0 .0021 16 341 196 0 ?342 148 305 20
9 0 0 1 17 342 0 343 342 342 0 344 341 0 0 +16 305 353 0 ?301 341 208 174 208 20
8 1 17 301 0 261 300 47 27 37 305 0 298 +16 208 355 0 ?300 305 206 174 305 305 1
 16 206 356 0 ?42 208 199 193 199 199 1 17 42 0 218 205 53 35 297 206 0 293 +15
 218 110 0 345 214 0 17 205 0 218 345 42 48 293 199 0 0 +17 293 0 291 65 292 35
 205 199 0 295 -15 291 458 0 65 333 0 17 292 0 291 293 65 48 134 207 0 205 -17 1
34 0 116 132 50 63 292 207 0 289 +16 207 359 0 ?134 199 136 187 136 136 1 16 136
 361 0 ?132 207 278 187 207 207 1 17 50 0 116 134 117 48 345 137 0 292 +17 117 0
 116 50 108 92 77 120 0 345 +17 345 0 218 346 205 92 50 137 0 0 -17 346 0 218 22
8 345 78 94 130 0 0 +17 228 0 218 53 346 95 80 223 0 338 +17 94 0 347 77 348 92
 346 130 0 117 -16 130 703 0 ?346 112 223 222 223 223 1 15 347 786 0 348 331 0 1
7 77 0 347 348 94 75 117 120 0 107 -17 348 0 347 94 77 78 115 349 0 316 -17 115
 0 315 113 316 75 348 349 0 108 +16 349 701 0 ?115 317 114 318 317 114 1 17 316
 0 315 115 312 78 314 317 0 346 +17 314 0 350 97 80 81 316 317 0 312 -16 317 704
 0 ?316 313 349 318 313 349 1 15 350 789 0 314 351 0 17 97 0 350 80 314 95 262 2
60 0 228 -17 80 0 350 314 97 78 228 223 0 348 -14 351 787 336 ?352 331 350 4 18
 +352 331 352 331 24 81 1 336 1010 327 351 353 0 334 354 355 14 352 796 354 ?241
 351 274 4 18 +241 351 241 351 24 14 331 784 356 ?351 111 347 4 18 +351 111 351
 111 24 81 1 356 1012 327 331 357 0 354 358 359 80 255 1 327 360 361 9000 1 1 1
 1 1 1 1 1 0 FFFFTFTFFFFFFF1 81 1 357 949 362 331 0 356 363 353 364 81 1 354 101
1 327 352 365 0 336 356 366 81 1 358 1013 327 333 367 0 356 368 369 82 255 1 359
 -2120155019 14 333 456 358 ?299 370 291 4 150 +370 299 299 370 24 81 1 367 945
 362 333 0 358 371 372 373 81 1 368 1014 327 370 371 0 358 374 375 82 1 369 2133
065845 14 370 462 368 ?333 165 288 4 150 +165 333 333 165 24 81 1 371 944 362 37
0 0 368 376 367 377 81 1 374 1015 327 165 376 0 368 378 379 82 1 375 2132213877
 14 165 468 374 ?370 160 280 4 150 +160 370 370 160 24 81 1 376 943 362 165 0 37
4 380 371 381 81 1 378 1016 327 166 382 0 374 383 384 82 1 379 2131361909 14 166
 444 378 ?160 170 36 4 150 +299 160 160 170 24 81 1 382 941 362 166 0 378 385 38
0 386 81 1 383 1017 327 170 385 0 378 387 388 82 1 384 2134769781 14 170 200 383
 ?166 389 390 4 162 +0 0 166 389 24 81 1 385 940 362 170 0 383 391 382 392 81 1
 387 1018 327 389 391 0 383 393 394 82 1 388 2104295541 14 389 191 387 ?170 219
 395 4 171 -0 0 170 219 24 81 1 391 939 362 389 0 387 396 385 397 81 1 393 1019
 327 219 396 0 387 398 399 82 1 394 2124873845 14 219 323 393 ?389 157 343 4 215
 +0 0 389 157 24 81 1 396 938 362 219 0 393 400 391 401 81 1 398 1020 327 157 40
0 0 393 402 403 82 1 399 -2141257611 14 157 618 398 ?219 271 306 4 14 +0 0 219 2
71 24 81 1 400 937 362 157 0 398 404 396 405 81 1 402 1021 327 271 404 0 398 406
 407 82 1 403 -2125528971 14 271 632 402 ?157 125 266 4 158 +0 0 157 125 24 81 1
 404 936 362 271 0 402 408 400 409 81 1 406 1022 327 125 408 0 402 410 411 82 1
 407 -2114977675 14 125 645 406 ?271 133 122 4 188 +0 0 271 133 24 81 1 408 935
 362 125 0 406 412 404 413 81 1 410 1023 327 133 412 0 406 414 415 82 1 411 -211
3601419 14 133 658 410 ?125 214 116 4 194 +0 0 125 214 24 81 1 412 934 362 133 0
 410 416 408 417 81 1 414 1024 327 168 418 0 410 419 420 82 1 415 -2112225163 14
 168 817 414 ?238 241 322 4 161 +0 0 238 241 24 81 1 418 953 362 168 0 414 421 4
22 423 81 1 419 1025 327 241 421 0 414 0 424 82 1 420 2118451317 14 241 799 419
 ?168 352 311 4 18 +238 352 168 352 24 81 1 421 952 362 241 0 419 365 418 425 82
 1 424 -2122317707 80 1 362 0 426 8001 0 0 0 0 3 5 0 0 0 FFFFTFTFFFFFFF2 81 1 36
5 951 362 352 0 354 353 421 427 83 255 3 425 .647058823529412 .619607843137255 .
584313725490196 81 1 353 950 362 351 0 336 357 365 428 83 3 427 .647058823529412
 .619607843137255 .584313725490196 83 3 428 .647058823529412 .619607843137255 .5
84313725490196 79 255 15 426 SDL/TYSA_COLOUR81 1 422 954 362 238 0 240 418 0 429
 83 3 423 .647058823529412 .619607843137255 .584313725490196 81 1 240 1005 327 2
38 422 0 217 326 430 83 3 429 .647058823529412 .619607843137255 .584313725490196
 81 1 217 1004 327 214 416 0 164 240 431 82 1 430 2117271669 81 1 416 933 362 21
4 0 217 335 412 432 81 1 164 1003 327 160 380 0 0 217 433 82 1 431 -2110848907 8
1 1 380 942 362 160 0 164 382 376 434 82 1 433 2110128245 83 3 434 .647058823529
412 .619607843137255 .584313725490196 81 1 335 932 362 12 0 334 0 416 435 83 3 4
32 .647058823529412 .619607843137255 .584313725490196 83 3 435 .647058823529412
 .619607843137255 .584313725490196 83 3 417 .647058823529412 .619607843137255 .5
84313725490196 83 3 413 .647058823529412 .619607843137255 .584313725490196 50 18
8 124 0 125 194 158 436 +-.005 -.002309401076758505 .004 0 -.866025403784439 .5
 0 -.5 -.866025403784439 50 158 125 0 271 188 14 437 +-.005 .002309401076758505
 .004 0 0 1 1 0 0 141 436 180 438 438 188 141 438 131 436 436 188 141 437 176 43
9 439 158 141 439 246 437 437 158 83 3 409 .647058823529412 .619607843137255 .58
4313725490196 83 3 405 .647058823529412 .619607843137255 .584313725490196 83 3 4
01 .647058823529412 .619607843137255 .584313725490196 15 343 182 0 342 219 302 8
3 3 397 .647058823529412 .619607843137255 .584313725490196 15 395 601 0 269 389
 440 50 171 2 0 389 162 215 0 +-.005 0 0 1 0 0 0 0 -1 17 269 0 395 269 269 0 441
 265 0 0 +15 440 189 0 442 389 0 17 442 0 440 442 442 0 340 148 0 0 -17 340 0 39
0 340 340 0 442 148 0 0 +15 390 202 0 340 170 443 15 443 203 0 344 170 0 17 344
 0 443 344 344 0 342 341 0 0 -17 441 0 324 441 441 0 269 265 0 0 -15 324 820 0 4
41 168 0 83 3 392 .647058823529412 .619607843137255 .584313725490196 83 3 386 .6
47058823529412 .619607843137255 .584313725490196 83 3 381 .647058823529412 .6196
07843137255 .584313725490196 15 280 470 0 71 165 0 83 3 377 .647058823529412 .61
9607843137255 .584313725490196 15 288 464 0 74 370 0 81 1 372 946 362 299 0 332
 367 328 444 83 3 373 .647058823529412 .619607843137255 .584313725490196 81 1 33
2 1008 327 299 372 0 329 334 445 81 1 328 947 362 242 0 326 372 363 446 83 3 444
 .647058823529412 .619607843137255 .584313725490196 81 1 363 948 362 111 0 329 3
28 357 447 83 3 446 .647058823529412 .619607843137255 .584313725490196 81 1 329
 1007 327 111 363 0 326 332 448 83 3 447 .647058823529412 .619607843137255 .5843
13725490196 82 1 448 -2118909835 82 1 445 2133917813 82 1 366 -2121858955 83 3 3
64 .647058823529412 .619607843137255 .584313725490196 79 14 361 SWEntUnchanged15
 274 798 0 88 352 0 82 1 355 -2120613771 16 114 700 0 ?113 349 0 318 349 319 1 1
7 113 0 315 310 115 89 107 114 0 275 +17 275 0 274 103 88 89 310 319 0 123 -17 1
03 0 274 88 275 101 123 129 0 267 -16 120 702 0 ?117 109 112 121 109 109 1 17 47
 0 261 301 259 43 263 147 0 37 +17 263 0 306 25 155 98 47 147 0 0 -82 1 337 -210
9800331 82 1 330 -2116026251 17 135 0 288 74 128 63 132 136 0 134 -17 128 0 288
 135 74 60 126 278 0 132 -17 273 0 280 277 71 57 272 281 0 276 -40 4 249 0 1 4 .
000684495066505086 .31422792189331 ??-.00128589317875939 -.00612487198995892 .00
4 -.002994216422401325 -.001725821988659775 .004 -.003171668015372015 .000628480
388634661 .004 -.002279690993458195 .003910636989866905 .004 41 1 250 L?-.001285
89317875939 -.00612487198995892 .004 41 1 251 L?-.002279690993458195 .0039106369
89866905 .004 204 16 252 4 2.56305887098212 .00191410682124061 .0037141068212406
1 -.00843427306671742 1.978122107322645 .0002057835775986775 .002005783577598675
 -.00403522306541828 1.41495033697032 283319846279882e-19 .00182833198462799 -.0
0168092068812384 .79669424603458 .000920309006541805 .002720309006541805 .001601
2359131084 40 3 234 0 1 3 .0004138262127537635 .304720154457433 ??-.002842667740
925235 -.00461891762357084 2000000000012125e-22 -.003198056772928255 -.003382038
41914592 -.002142137624889345 -.00284266774092524 -.00230928560670467 -.0040002
 41 1 235 L?-.002842667740925235 -.00461891762357084 2000000000012125e-22 41 1 2
36 L?-.00284266774092524 -.00230928560670467 -.0040002 204 12 237 4 -23094010767
59845e-22 .002157332259074765 3.141549353402135 .0003573322590747635 .0024735274
68742175 .001801943227071745 3.706200023592895 194322707174333e-20 .004619033093
62468 .002157332259074765 4.18883350497405 .0003573322590747635 40 3 230 0 1 3 .
0004138262127537625 .304720154457433 ??-.002842667740925235 -.002309285606704665
 .0040002 -.003198056772928255 -.00354616481112959 .001857862375110655 -.0028426
6774092524 -.00461891762357084 -1999999999988125e-22 41 1 231 L?-.00284266774092
5235 -.002309285606704665 .0040002 41 1 232 L?-.00284266774092524 -.004618917623
57084 -1999999999988125e-22 204 12 233 4 -230940107675419e-21 .00215733225907476
5 2.09435180220554 .0003573322590747635 .002473527468742175 .001801943227071745
 2.6590024723963 194322707174383e-20 .00461903309362468 .002157332259074765 3.14
163595377745 .000357332259074763 141 220 187 449 449 194 141 449 121 220 220 194
 40 3 210 0 1 3 .0004138262127537625 .304720154457433 ??-.0003573322590747625 .0
0461891762357084 1999999999996555e-22 -19432270717431e-19 .00338203841914592 -.0
02142137624889345 -.000357332259074763 .002309285606704665 -.0040002 41 1 211 L?
-.0003573322590747625 .00461891762357084 1999999999996555e-22 41 1 212 L?-.00035
7332259074763 .002309285606704665 -.0040002 204 12 213 4 .00461903309362468 .004
64266774092524 3.141549353402135 66669166603863e-21 .00214527468477483 .00499805
677292826 3.706200023592895 -.000355322362836416 -230940107675419e-21 .004642667
74092524 4.18883350497405 666691666043638e-22 40 3 195 0 1 3 .000413826212753763
 .304720154457433 ??-.0003573322590747635 -.00230928560670467 -.0040002 -1943227
07174391e-20 -.003546164811129595 -.001857862375110655 -.000357332259074763 -.00
461891762357084 2000000000007765e-22 41 1 196 L?-.0003573322590747635 -.00230928
560670467 -.0040002 41 1 197 L?-.000357332259074763 -.00461891762357084 20000000
00007765e-22 204 12 198 4 .00461903309362468 .00464266774092524 5.23594445579533
 666691666048645e-22 .00214527468477483 .00499805677292826 5.80059512598609 -.00
0355322362836415 -2309401076756065e-22 .00464266774092524 4330018765763665e-20 6
66691666048645e-22 40 3 189 0 1 3 .0004138262127537625 .304720154457433 ??-.0003
57332259074763 -.00461891762357084 -1999999999988695e-22 -194322707174394e-20 -.
00338203841914592 .002142137624889345 -.000357332259074763 -.002309285606704665
 .0040002 41 1 190 L?-.000357332259074763 -.00461891762357084 -1999999999988695e
-22 41 1 191 L?-.000357332259074763 -.002309285606704665 .0040002 204 12 192 4 .
00461903309362468 .00464266774092524 6.28314200699193 666691666043638e-22 .00214
527468477483 .00499805677292826 .564607370003104 -.000355322362836415 -230940107
676387e-21 .00464266774092524 1.047240851384254 666691666048645e-22 40 4 181 0 1
 4 .000684495066505086 .31422792189331 ??-.00191410682124061 -.00612487198995892
 .004 -.0002057835775986775 -.001725821988659775 .004 -2833198462798825e-20 .000
628480388634661 .004 -.000920309006541805 .003910636989866905 .004 41 1 182 L?-.
00191410682124061 -.00612487198995892 .004 41 1 183 L?-.000920309006541805 .0039
10636989866905 .004 204 16 184 4 .00308589317875939 -.00843427306671742 .5785337
82607675 .00155684123133245 .00479421642240132 -.00403522306541828 1.16347054626
7146 -.0001514820123094815 .00497166801537201 -.00168092068812384 1.726642316619
47 -.0003289336052801705 .004079690993458195 .0016012359131084 2.344898407555215
 .000563043416633646 141 159 17 450 450 14 141 450 6 159 159 14 19 13 135 0 1 0
 8 4 S0 40 3 19 0 1 3 .0004138262127537625 .304720154457433 ??-.0028426677409252
4 .00461891762357084 -2000000000003685e-22 -.00319805677292826 .0033820384191459
2 .00214213762488934 -.00284266774092524 .002309285606704665 .0040002 41 1 20 L?
-.00284266774092524 .00461891762357084 -2000000000003685e-22 41 1 21 L?-.0028426
6774092524 .002309285606704665 .0040002 204 12 22 4 -2309401076759345e-22 .00215
733225907476 6.28314200699193 .000357332259074763 .002473527468742175 .001801943
22707174 .564607370003103 194322707174283e-20 .00461903309362468 .00215733225907
476 1.047240851384254 .000357332259074763 141 15 174 451 451 5 141 451 229 15 15
 5 74 4 CI16 index_map_offset0 0 1 dCCZ20 11 2 0 0 419 422 0 0 0 0 0 0 0 0 0 0 0
 0 0 0 0 0 0 0 1 0 
